<?xml version="1.0" standalone="no"?>
<!DOCTYPE svg PUBLIC "-//W3C//DTD SVG 20010904//EN"
 "http://www.w3.org/TR/2001/REC-SVG-20010904/DTD/svg10.dtd">
<svg version="1.0" xmlns="http://www.w3.org/2000/svg"
 width="270.000000pt" height="270.000000pt" viewBox="0 0 270.000000 270.000000"
 preserveAspectRatio="xMidYMid meet">
<metadata>
Created by potrace 1.14, written by Peter Selinger 2001-2017
</metadata>
<g transform="translate(0.000000,270.000000) scale(0.100000,-0.100000)"
fill="#000000" stroke="none">
<path d="M1185 2684 c-162 -20 -342 -78 -480 -156 -65 -37 -144 -87 -161 -103
-6 -5 -27 -23 -47 -38 -69 -54 -188 -182 -245 -262 -153 -216 -242 -501 -243
-774 -1 -506 284 -972 736 -1203 262 -135 615 -179 900 -113 180 41 369 127
506 229 95 72 234 208 277 271 15 22 29 42 32 45 12 12 58 90 93 157 96 184
138 356 142 573 4 183 -6 274 -44 400 -39 130 -46 147 -98 250 -168 333 -458
573 -823 681 -36 11 -81 22 -100 25 -19 3 -38 8 -41 9 -10 7 -141 18 -224 19
-44 1 -125 -4 -180 -10z"/>
</g>
</svg>
